<svg xmlns="http://www.w3.org/2000/svg" xmlns:xlink="http://www.w3.org/1999/xlink" width="512" zoomAndPan="magnify" viewBox="0 0 384 383.999986" height="512" preserveAspectRatio="xMidYMid meet" version="1.0"><rect x="-38.4" width="460.8" fill="#ffffff" y="-38.399999" height="460.799983" fill-opacity="1"/><rect x="-38.4" width="460.8" fill="#ffffff" y="-38.399999" height="460.799983" fill-opacity="1"/><rect x="-38.4" width="460.8" fill="#ffffff" y="-38.399999" height="460.799983" fill-opacity="1"/><path fill="#4285f4" d="M 224.511719 170.71875 L 270.609375 135.601562 L 291.078125 91.4375 C 277.453125 65.421875 253.917969 45.394531 225.625 36.507812 L 183.085938 65.242188 L 158.949219 115.789062 C 166.796875 106.285156 178.5625 100.300781 191.785156 100.300781 C 215.539062 100.300781 234.527344 119.511719 234.527344 143.042969 C 234.511719 153.570312 230.714844 163.273438 224.511719 170.71875 Z M 224.511719 170.71875 " fill-opacity="1" fill-rule="nonzero"/><path fill="#1a73e8" d="M 191.769531 31.347656 C 157.289062 31.347656 126.734375 46.835938 106.085938 71.40625 L 125.75 103.621094 L 158.949219 115.808594 C 159.152344 115.605469 225.644531 36.527344 225.644531 36.527344 C 214.898438 33.207031 203.535156 31.347656 191.769531 31.347656 Z M 191.769531 31.347656 " fill-opacity="1" fill-rule="nonzero"/><path fill="#fbbc04" d="M 224.511719 170.71875 C 216.667969 180.003906 204.992188 186.003906 191.769531 186.003906 C 168.015625 186.003906 149.027344 166.796875 149.027344 143.261719 C 149.027344 133.136719 153.148438 123.03125 158.933594 115.808594 L 109.953125 150.832031 L 91.015625 196.730469 C 102.78125 222.324219 122.191406 242.972656 142.222656 268.785156 L 194.722656 227.011719 Z M 224.511719 170.71875 " fill-opacity="1" fill-rule="nonzero"/><path fill="#34a853" d="M 303.886719 143.261719 C 303.886719 124.472656 299.140625 106.925781 291.078125 91.4375 L 142.203125 268.785156 C 148.808594 277.25 155.210938 286.335938 161.613281 296.242188 C 184.34375 331.359375 177.519531 352.410156 191.988281 352.410156 C 206.652344 352.410156 200.25 331.359375 222.960938 296.242188 C 260.324219 237.8125 303.886719 211.179688 303.886719 143.261719 Z M 303.886719 143.261719 " fill-opacity="1" fill-rule="nonzero"/><path fill="#ea4335" d="M 158.949219 115.789062 L 106.085938 71.40625 C 89.777344 90.816406 79.871094 116.007812 79.871094 143.261719 C 79.871094 164.3125 83.992188 181.460938 91.015625 196.730469 Z M 158.949219 115.789062 " fill-opacity="1" fill-rule="nonzero"/></svg>